<svg viewBox="0 0 24 24" fill="none" xmlns="http://www.w3.org/2000/svg"><path d="M11.984 22C6.472 21.994 2.006 17.52 2 12c.393.111.8.168 1.208.169a4.101 4.101 0 003.394-1.757c.692-1 .838-2.281.39-3.412.287.051.577.077.868.078A4.257 4.257 0 0011.2 5.5a4.166 4.166 0 00.849-3.5c5.514.018 9.969 4.51 9.95 10.032-.017 5.523-4.501 9.986-10.015 9.968zm.761-3.432a1.249 1.249 0 001.639-.672 1.252 1.252 0 00-.269-1.362 1.249 1.249 0 00-2.104.635 1.25 1.25 0 00.735 1.399zm-5.833-1.693a1.664 1.664 0 002.17-.91 1.669 1.669 0 00-1.539-2.3 1.667 1.667 0 00-1.663 1.668c0 .669.398 1.273 1.012 1.536h.016l.004.006zm9.416-2.507a1.662 1.662 0 001.916-.463 1.668 1.668 0 00-.342-2.453 1.662 1.662 0 00-2.595 1.426c.017.625.38 1.187.943 1.458h-.012l.03.013.02.008h-.006a.43.43 0 01.042.016l.004-.005zm-4.344-4.035a.833.833 0 10.323.066l-.018-.008-.027-.01a.822.822 0 00-.278-.048zm3.744-4.166a1.246 1.246 0 00-.254 2.466 1.247 1.247 0 00.739-2.366h-.01a1.24 1.24 0 00-.475-.1zM4.496 9.5a.832.832 0 11.001-1.665.832.832 0 01-.001 1.665zM3.248 7a1.249 1.249 0 11.002-2.498A1.249 1.249 0 013.248 7zM8.24 5.333a1.249 1.249 0 11.002-2.5 1.249 1.249 0 01-.002 2.501v-.001zM5.329 3.667a.832.832 0 110-1.665.832.832 0 010 1.665z" fill="#2E3A59"/></svg>
