<?xml version="1.0" encoding="utf-8"?>
<!-- Svg Vector Icons : http://www.onlinewebfonts.com/icon -->
<!-- https://www.onlinewebfonts.com/icon/471157 -->
<!DOCTYPE svg PUBLIC "-//W3C//DTD SVG 1.1//EN" "http://www.w3.org/Graphics/SVG/1.1/DTD/svg11.dtd">
<svg version="1.1" xmlns="http://www.w3.org/2000/svg" xmlns:xlink="http://www.w3.org/1999/xlink" x="0px" y="0px" viewBox="0 0 1000 1000" enable-background="new 0 0 1000 1000" xml:space="preserve">
<metadata> Svg Vector Icons : http://www.onlinewebfonts.com/icon </metadata>
<g><g transform="translate(0.000000,511.000000) scale(0.100000,-0.100000)"><path d="M264.8,4062.6c-34.5-17.2-86.2-65.1-115-109.2l-49.8-76.6V110v-3766.7l51.7-78.6c101.5-153.3-375.5-139.9,4847.3-139.9h4661.5l74.7,44.1c47.9,26.8,92,74.7,120.7,126.5l44.1,84.3l-3.8,3749.5l-5.7,3747.6l-51.7,78.6c-101.5,153.3,375.5,139.9-4847.3,139.9C697.8,4095.1,324.2,4091.3,264.8,4062.6z M7261.8,3761.8c197.3-82.4,245.2-339.1,92-492.4c-214.6-216.5-567.1-23-511.5,279.7C6876.7,3729.2,7087.4,3836.5,7261.8,3761.8z M8181.4,3761.8c197.3-82.4,245.2-339.1,92-492.4c-214.6-216.5-567.1-23-511.5,279.7C7796.3,3729.2,8007.1,3836.5,8181.4,3761.8z M9101.1,3761.8c197.3-82.4,245.2-339.1,92-492.4c-214.6-216.5-567.1-23-511.5,279.7C8716,3729.2,8926.7,3836.5,9101.1,3761.8z M9440.2,2834.5c36.4-17.3,86.2-61.3,109.2-97.7l44.1-65.1V-349.8v-3021.4l-44.1-65.1c-23-36.4-72.8-80.5-109.2-97.7c-63.2-32.6-316.1-34.5-4445-34.5c-4128.8,0-4381.7,1.9-4445,34.5c-36.4,17.3-86.2,61.3-109.2,97.7l-44.1,65.1v3021.4v3021.4l44.1,65.1c23,36.4,72.8,80.5,109.2,97.7c63.2,32.6,316.1,34.5,4445,34.5C9124,2868.9,9377,2867,9440.2,2834.5z"/><path d="M3313,692.4c-191.6-97.7-226.1-337.2-70.9-486.6c65.1-63.2,76.6-67.1,197.3-67.1c97.7,0,139.9,9.6,180.1,38.3c61.3,44.1,130.3,172.4,130.3,241.4c0,67.1-76.6,208.8-137.9,252.9C3542.9,723.1,3393.5,732.7,3313,692.4z"/><path d="M6376.6,680.9c-275.9-147.5-170.5-551.8,143.7-551.8c297,0,402.4,362.1,159,542.2C6598.8,730.8,6476.2,734.6,6376.6,680.9z"/><path d="M3313-976.3c-208.8-103.4-210.8-421.5-3.8-528.8c78.6-40.2,3138.3-837.3,3213-837.3c84.3,0,210.8,72.8,258.7,149.4c84.3,136,38.3,331.5-95.8,410c-80.5,47.9-3126.8,839.2-3226.4,839.2C3412.6-943.8,3347.5-959.1,3313-976.3z"/></g></g>
</svg>
