<svg width="28" height="36" viewBox="0 0 28 36" fill="none" xmlns="http://www.w3.org/2000/svg">
  <rect width="20" height="36" fill="#8378DE"/>
  <path d="M6.69482 30.853C6.53532 30.9351 6.36784 30.9966 6.19238 31.0376C6.01693 31.0786 5.83236 31.0991 5.63867 31.0991C4.95052 31.0991 4.42529 30.8724 4.06299 30.4189C3.70068 29.9655 3.51953 29.3104 3.51953 28.4536C3.51953 27.5946 3.70068 26.9383 4.06299 26.4849C4.42529 26.0314 4.95052 25.8047 5.63867 25.8047C5.83236 25.8047 6.01807 25.8252 6.1958 25.8662C6.37354 25.9072 6.53988 25.9688 6.69482 26.0508V27.1719C6.52165 27.0124 6.35303 26.8962 6.18896 26.8232C6.02718 26.748 5.8597 26.7104 5.68652 26.7104C5.31738 26.7104 5.03825 26.8574 4.84912 27.1514C4.66227 27.443 4.56885 27.8771 4.56885 28.4536C4.56885 29.0278 4.66227 29.4619 4.84912 29.7559C5.03825 30.0475 5.31738 30.1934 5.68652 30.1934C5.8597 30.1934 6.02718 30.1569 6.18896 30.084C6.35303 30.0088 6.52165 29.8914 6.69482 29.7319V30.853ZM8.96094 28.7612C8.4528 28.5675 8.10872 28.3647 7.92871 28.1528C7.7487 27.9386 7.65869 27.6515 7.65869 27.2915C7.65869 26.8289 7.8068 26.4655 8.10303 26.2012C8.39925 25.9368 8.80599 25.8047 9.32324 25.8047C9.55794 25.8047 9.79264 25.832 10.0273 25.8867C10.262 25.9391 10.4945 26.0177 10.7246 26.1226V27.1069C10.5081 26.9543 10.2882 26.8381 10.0649 26.7583C9.84163 26.6785 9.62061 26.6387 9.40186 26.6387C9.15804 26.6387 8.97119 26.6877 8.84131 26.7856C8.71143 26.8836 8.64648 27.0238 8.64648 27.2061C8.64648 27.3473 8.6932 27.4647 8.78662 27.5581C8.88232 27.6493 9.08057 27.7507 9.38135 27.8623L9.81543 28.0264C10.2256 28.1768 10.5275 28.3761 10.7212 28.6245C10.9149 28.8729 11.0117 29.1862 11.0117 29.5645C11.0117 30.0794 10.859 30.4645 10.5537 30.7197C10.2507 30.9727 9.7915 31.0991 9.17627 31.0991C8.92334 31.0991 8.66927 31.0684 8.41406 31.0068C8.16113 30.9476 7.91618 30.8587 7.6792 30.7402V29.6978C7.94808 29.8892 8.20785 30.0316 8.4585 30.125C8.71143 30.2184 8.96094 30.2651 9.20703 30.2651C9.4554 30.2651 9.64795 30.2093 9.78467 30.0977C9.92139 29.9837 9.98975 29.8254 9.98975 29.6226C9.98975 29.4699 9.94417 29.3366 9.85303 29.2227C9.76188 29.1064 9.62972 29.0153 9.45654 28.9492L8.96094 28.7612ZM13.1787 28.7612C12.6706 28.5675 12.3265 28.3647 12.1465 28.1528C11.9665 27.9386 11.8765 27.6515 11.8765 27.2915C11.8765 26.8289 12.0246 26.4655 12.3208 26.2012C12.617 25.9368 13.0238 25.8047 13.541 25.8047C13.7757 25.8047 14.0104 25.832 14.2451 25.8867C14.4798 25.9391 14.7122 26.0177 14.9424 26.1226V27.1069C14.7259 26.9543 14.506 26.8381 14.2827 26.7583C14.0594 26.6785 13.8384 26.6387 13.6196 26.6387C13.3758 26.6387 13.189 26.6877 13.0591 26.7856C12.9292 26.8836 12.8643 27.0238 12.8643 27.2061C12.8643 27.3473 12.911 27.4647 13.0044 27.5581C13.1001 27.6493 13.2983 27.7507 13.5991 27.8623L14.0332 28.0264C14.4434 28.1768 14.7453 28.3761 14.939 28.6245C15.1326 28.8729 15.2295 29.1862 15.2295 29.5645C15.2295 30.0794 15.0768 30.4645 14.7715 30.7197C14.4684 30.9727 14.0093 31.0991 13.394 31.0991C13.1411 31.0991 12.887 31.0684 12.6318 31.0068C12.3789 30.9476 12.134 30.8587 11.897 30.7402V29.6978C12.1659 29.8892 12.4256 30.0316 12.6763 30.125C12.9292 30.2184 13.1787 30.2651 13.4248 30.2651C13.6732 30.2651 13.8657 30.2093 14.0024 30.0977C14.1392 29.9837 14.2075 29.8254 14.2075 29.6226C14.2075 29.4699 14.1619 29.3366 14.0708 29.2227C13.9797 29.1064 13.8475 29.0153 13.6743 28.9492L13.1787 28.7612Z" fill="white"/>
  <rect width="8" height="28" transform="translate(20 8)" fill="#8378DE"/>
  <path d="M28 8L20 0V8H28Z" fill="#CFCAF2" fill-opacity="0.9"/>
</svg>
