<svg width="28" height="36" viewBox="0 0 28 36" fill="none" xmlns="http://www.w3.org/2000/svg">
  <rect width="8" height="28" transform="translate(20 8)" fill="#69797E"/>
  <rect width="20" height="36" fill="#69797E"/>
  <path d="M28 8L20 0V8H28Z" fill="#8D9BA0" fill-opacity="0.9"/>
  <path d="M6.80078 26.7856H4.63037V27.8862H6.60596V28.7749H4.63037V31H3.62207V25.897H6.80078V26.7856ZM9.32324 26.7104C9.06576 26.7104 8.87777 26.8483 8.75928 27.124C8.64079 27.3975 8.58154 27.8407 8.58154 28.4536C8.58154 29.0643 8.64079 29.5075 8.75928 29.7832C8.87777 30.0566 9.06576 30.1934 9.32324 30.1934C9.58301 30.1934 9.77214 30.0566 9.89062 29.7832C10.0091 29.5075 10.0684 29.0643 10.0684 28.4536C10.0684 27.8407 10.0091 27.3975 9.89062 27.124C9.77214 26.8483 9.58301 26.7104 9.32324 26.7104ZM7.53223 28.4536C7.53223 27.5809 7.68262 26.9212 7.9834 26.4746C8.28646 26.028 8.73307 25.8047 9.32324 25.8047C9.91569 25.8047 10.3623 26.028 10.6631 26.4746C10.9661 26.9212 11.1177 27.5809 11.1177 28.4536C11.1177 29.3241 10.9661 29.9826 10.6631 30.4292C10.3623 30.8758 9.91569 31.0991 9.32324 31.0991C8.73307 31.0991 8.28646 30.8758 7.9834 30.4292C7.68262 29.9826 7.53223 29.3241 7.53223 28.4536ZM11.8423 25.897H12.9258L14.3477 29.6055V25.897H15.2363V31H14.1597L12.731 27.2915V31H11.8423V25.897ZM18.2646 31H17.2563V26.7788H15.9609V25.897H19.5601V26.7788H18.2646V31Z" fill="white"/>
</svg>
