<svg width="28" height="36" viewBox="0 0 28 36" fill="none" xmlns="http://www.w3.org/2000/svg">
  <rect width="20" height="36" fill="#E3008C"/>
  <rect width="8" height="28" transform="translate(20 8)" fill="#E3008C"/>
  <path d="M28 8L20 0V8H28Z" fill="#FF28AD" fill-opacity="0.9"/>
  <path d="M3.46826 25.897H4.47656V27.8418H5.73779V25.897H6.74609V31H5.73779V28.7305H4.47656V31H3.46826V25.897ZM9.8291 31H8.8208V26.7788H7.52539V25.897H11.1245V26.7788H9.8291V31ZM11.7295 25.897H12.9326L13.541 28.1357L14.146 25.897H15.356V31H14.4878V26.9121L13.9478 29.144H13.1445L12.5977 26.9121V31H11.7295V25.897ZM16.4224 31V25.897H17.4307V30.1113H19.5874V31H16.4224Z" fill="white"/>
</svg>
