<svg width="28" height="36" viewBox="0 0 28 36" fill="none" xmlns="http://www.w3.org/2000/svg">
  <rect width="20" height="36" fill="#C239B3"/>
  <rect width="8" height="28" transform="translate(20 8)" fill="#C239B3"/>
  <path d="M28 8L20 0V8H28Z" fill="#D571CA" fill-opacity="0.9"/>
  <path d="M3.58789 26.7856V25.897H6.62646V26.7856H5.61133V30.1113H6.62646V31H3.58789V30.1113H4.60303V26.7856H3.58789ZM7.51172 25.897H8.71484L9.32324 28.1357L9.92822 25.897H11.1382V31H10.27V26.9121L9.72998 29.144H8.92676L8.37988 26.9121V31H7.51172V25.897ZM13.541 26.8198L13.0659 28.9082H14.0195L13.541 26.8198ZM12.9258 25.897H14.1597L15.5371 31H14.5288L14.2144 29.7388H12.8643L12.5566 31H11.5483L12.9258 25.897ZM18.6338 30.0771V29.103H17.9434V28.2554H19.5156V30.5933C19.3219 30.7596 19.1077 30.8861 18.873 30.9727C18.6406 31.057 18.3911 31.0991 18.1245 31.0991C17.4637 31.0991 16.9533 30.8701 16.5933 30.4121C16.2332 29.9518 16.0532 29.299 16.0532 28.4536C16.0532 27.5946 16.2344 26.9383 16.5967 26.4849C16.9613 26.0314 17.4865 25.8047 18.1724 25.8047C18.3774 25.8047 18.5791 25.8343 18.7773 25.8936C18.9756 25.9505 19.1613 26.0337 19.3345 26.1431V27.2607C19.1932 27.0785 19.0303 26.9417 18.8457 26.8506C18.6634 26.7572 18.4629 26.7104 18.2441 26.7104C17.8613 26.7104 17.5754 26.8551 17.3862 27.1445C17.1971 27.4316 17.1025 27.868 17.1025 28.4536C17.1025 29.021 17.1937 29.4528 17.376 29.749C17.5583 30.0452 17.8237 30.1934 18.1724 30.1934C18.2772 30.1934 18.3683 30.1842 18.4458 30.166C18.5233 30.1455 18.5859 30.1159 18.6338 30.0771ZM23.624 31H20.4453V25.897H23.624V26.7856H21.4536V27.8862H23.4189V28.7749H21.4536V30.1113H23.624V31Z" fill="white"/>
</svg>