<svg width="28" height="36" viewBox="0 0 28 36" fill="none" xmlns="http://www.w3.org/2000/svg">
  <rect width="20" height="36" fill="#FCE100"/>
  <path d="M3.37256 30.7471V29.5781C3.56852 29.7786 3.77702 29.9313 3.99805 30.0361C4.22135 30.141 4.4458 30.1934 4.67139 30.1934C4.93571 30.1934 5.12939 30.1273 5.25244 29.9951C5.37549 29.863 5.43701 29.6522 5.43701 29.3628V26.7856H4.20312V25.897H6.44531V29.3628C6.44531 29.9849 6.31429 30.4303 6.05225 30.6992C5.79248 30.9658 5.36296 31.0991 4.76367 31.0991C4.5472 31.0991 4.32048 31.0695 4.0835 31.0103C3.8488 30.951 3.61182 30.8633 3.37256 30.7471ZM8.96094 28.7612C8.4528 28.5675 8.10872 28.3647 7.92871 28.1528C7.7487 27.9386 7.65869 27.6515 7.65869 27.2915C7.65869 26.8289 7.8068 26.4655 8.10303 26.2012C8.39925 25.9368 8.80599 25.8047 9.32324 25.8047C9.55794 25.8047 9.79264 25.832 10.0273 25.8867C10.262 25.9391 10.4945 26.0177 10.7246 26.1226V27.1069C10.5081 26.9543 10.2882 26.8381 10.0649 26.7583C9.84163 26.6785 9.62061 26.6387 9.40186 26.6387C9.15804 26.6387 8.97119 26.6877 8.84131 26.7856C8.71143 26.8836 8.64648 27.0238 8.64648 27.2061C8.64648 27.3473 8.6932 27.4647 8.78662 27.5581C8.88232 27.6493 9.08057 27.7507 9.38135 27.8623L9.81543 28.0264C10.2256 28.1768 10.5275 28.3761 10.7212 28.6245C10.9149 28.8729 11.0117 29.1862 11.0117 29.5645C11.0117 30.0794 10.859 30.4645 10.5537 30.7197C10.2507 30.9727 9.7915 31.0991 9.17627 31.0991C8.92334 31.0991 8.66927 31.0684 8.41406 31.0068C8.16113 30.9476 7.91618 30.8587 7.6792 30.7402V29.6978C7.94808 29.8892 8.20785 30.0316 8.4585 30.125C8.71143 30.2184 8.96094 30.2651 9.20703 30.2651C9.4554 30.2651 9.64795 30.2093 9.78467 30.0977C9.92139 29.9837 9.98975 29.8254 9.98975 29.6226C9.98975 29.4699 9.94417 29.3366 9.85303 29.2227C9.76188 29.1064 9.62972 29.0153 9.45654 28.9492L8.96094 28.7612Z" fill="black"/>
  <rect width="8" height="28" transform="translate(20 8)" fill="#FCE100"/>
  <path d="M28 8L20 0V8H28Z" fill="#FFEB49" fill-opacity="0.9"/>
</svg>
