<svg width="28" height="36" viewBox="0 0 28 36" fill="none" xmlns="http://www.w3.org/2000/svg">
  <rect width="20" height="36" fill="#00AD56"/>
  <rect width="8" height="28" transform="translate(20 8)" fill="#00AD56"/>
  <path d="M28 8L20 0V8H28Z" fill="#00E170" fill-opacity="0.9"/>
  <path d="M3.29395 25.897H4.49707L5.10547 28.1357L5.71045 25.897H6.92041V31H6.05225V26.9121L5.51221 29.144H4.70898L4.16211 26.9121V31H3.29395V25.897ZM10.9707 31H7.79199V25.897H10.9707V26.7856H8.80029V27.8862H10.7656V28.7749H8.80029V30.1113H10.9707V31ZM12.9121 26.8062V30.0908H13.1855C13.582 30.0908 13.8646 29.9666 14.0332 29.7183C14.2018 29.4676 14.2861 29.0426 14.2861 28.4434C14.2861 27.8486 14.2018 27.4271 14.0332 27.1787C13.8646 26.9303 13.582 26.8062 13.1855 26.8062H12.9121ZM11.9038 25.897H12.9839C13.8179 25.897 14.4183 26.0964 14.7852 26.4951C15.152 26.8916 15.3354 27.541 15.3354 28.4434C15.3354 29.348 15.152 30.0008 14.7852 30.4019C14.4183 30.8006 13.8179 31 12.9839 31H11.9038V25.897ZM16.2412 26.7856V25.897H19.2798V26.7856H18.2646V30.1113H19.2798V31H16.2412V30.1113H17.2563V26.7856H16.2412ZM21.9766 26.8198L21.5015 28.9082H22.4551L21.9766 26.8198ZM21.3613 25.897H22.5952L23.9727 31H22.9644L22.6499 29.7388H21.2998L20.9922 31H19.9839L21.3613 25.897Z" fill="white"/>
</svg>
