<svg width="28" height="36" viewBox="0 0 28 36" fill="none" xmlns="http://www.w3.org/2000/svg">
  <rect width="20" height="36" fill="#038387"/>
  <rect width="8" height="28" transform="translate(20 8)" fill="#038387"/>
  <path d="M28 8L20 0V8H28Z" fill="#04AAB0" fill-opacity="0.9"/>
  <path d="M5.10547 26.7104C4.84798 26.7104 4.65999 26.8483 4.5415 27.124C4.42301 27.3975 4.36377 27.8407 4.36377 28.4536C4.36377 29.0643 4.42301 29.5075 4.5415 29.7832C4.65999 30.0566 4.84798 30.1934 5.10547 30.1934C5.36523 30.1934 5.55436 30.0566 5.67285 29.7832C5.79134 29.5075 5.85059 29.0643 5.85059 28.4536C5.85059 27.8407 5.79134 27.3975 5.67285 27.124C5.55436 26.8483 5.36523 26.7104 5.10547 26.7104ZM3.31445 28.4536C3.31445 27.5809 3.46484 26.9212 3.76562 26.4746C4.06868 26.028 4.5153 25.8047 5.10547 25.8047C5.69792 25.8047 6.14453 26.028 6.44531 26.4746C6.74837 26.9212 6.8999 27.5809 6.8999 28.4536C6.8999 29.3241 6.74837 29.9826 6.44531 30.4292C6.14453 30.8758 5.69792 31.0991 5.10547 31.0991C4.5153 31.0991 4.06868 30.8758 3.76562 30.4292C3.46484 29.9826 3.31445 29.3241 3.31445 28.4536ZM9.8291 31H8.8208V26.7788H7.52539V25.897H11.1245V26.7788H9.8291V31ZM11.9038 25.897H12.9121V27.8418H14.1733V25.897H15.1816V31H14.1733V28.7305H12.9121V31H11.9038V25.897ZM19.4062 31H16.2275V25.897H19.4062V26.7856H17.2358V27.8862H19.2012V28.7749H17.2358V30.1113H19.4062V31ZM22.6294 28.5903C22.7297 28.6108 22.8162 28.6587 22.8892 28.7339C22.9644 28.8068 23.0555 28.9504 23.1626 29.1646L24.0854 31H22.978L22.3628 29.7114C22.3446 29.675 22.3206 29.6248 22.291 29.561C22.111 29.1759 21.8991 28.9834 21.6553 28.9834H21.334V31H20.3257V25.897H21.7817C22.438 25.897 22.9085 26.0132 23.1934 26.2456C23.4805 26.478 23.624 26.8563 23.624 27.3804C23.624 27.7313 23.5386 28.0104 23.3677 28.2178C23.1968 28.4251 22.9507 28.5493 22.6294 28.5903ZM21.334 26.7446V28.1357H21.8091C22.0848 28.1357 22.2819 28.0822 22.4004 27.9751C22.5212 27.8657 22.5815 27.6868 22.5815 27.4385C22.5815 27.1901 22.5223 27.0124 22.4038 26.9053C22.2853 26.7982 22.0871 26.7446 21.8091 26.7446H21.334Z" fill="white"/>
</svg>
