<svg width="240" height="240" viewBox="0 0 240 240" fill="none" xmlns="http://www.w3.org/2000/svg">
<rect width="240" height="240" fill="#306EB8"/>
<path d="M74.7427 206.115H60.8633V198.827H74.7427C77.1597 198.827 79.1128 198.437 80.6021 197.655C82.0913 196.874 83.1777 195.8 83.8613 194.433C84.5693 193.041 84.9233 191.454 84.9233 189.672C84.9233 187.987 84.5693 186.413 83.8613 184.948C83.1777 183.458 82.0913 182.262 80.6021 181.359C79.1128 180.456 77.1597 180.004 74.7427 180.004H63.6831V226H54.4912V172.68H74.7427C78.8687 172.68 82.3721 173.412 85.2529 174.877C88.1582 176.317 90.3677 178.319 91.8813 180.883C93.395 183.422 94.1519 186.327 94.1519 189.599C94.1519 193.041 93.395 195.995 91.8813 198.461C90.3677 200.927 88.1582 202.819 85.2529 204.137C82.3721 205.456 78.8687 206.115 74.7427 206.115ZM137.292 218.712V226H108.983V218.712H137.292ZM111.583 172.68V226H102.392V172.68H111.583ZM133.593 194.945V202.123H108.983V194.945H133.593ZM137.108 172.68V180.004H108.983V172.68H137.108ZM144.799 172.68H163.659C167.711 172.68 171.166 173.29 174.022 174.511C176.879 175.731 179.064 177.538 180.578 179.931C182.116 182.299 182.885 185.229 182.885 188.72C182.885 191.381 182.396 193.725 181.42 195.751C180.443 197.777 179.064 199.486 177.282 200.878C175.5 202.245 173.375 203.307 170.91 204.064L168.126 205.419H151.171L151.098 198.131H163.805C166.002 198.131 167.833 197.741 169.298 196.959C170.763 196.178 171.862 195.116 172.594 193.773C173.351 192.406 173.729 190.868 173.729 189.159C173.729 187.304 173.363 185.692 172.631 184.325C171.923 182.934 170.824 181.872 169.335 181.139C167.846 180.382 165.954 180.004 163.659 180.004H153.991V226H144.799V172.68ZM175.231 226L162.707 202.05L172.338 202.013L185.045 225.524V226H175.231ZM201.232 172.68V226H192.04V172.68H201.232ZM222.985 196.007V203.295H198.888V196.007H222.985ZM226.024 172.68V180.004H198.888V172.68H226.024Z" fill="#F5F5F5"/>
<path d="M60.8633 206.115H58.8633V208.115H60.8633V206.115ZM60.8633 198.827V196.827H58.8633V198.827H60.8633ZM83.8613 194.433L82.0787 193.526L82.0725 193.538L83.8613 194.433ZM83.8613 184.948L82.0437 185.782L82.052 185.8L82.0606 185.818L83.8613 184.948ZM63.6831 180.004V178.004H61.6831V180.004H63.6831ZM63.6831 226V228H65.6831V226H63.6831ZM54.4912 226H52.4912V228H54.4912V226ZM54.4912 172.68V170.68H52.4912V172.68H54.4912ZM85.2529 174.877L84.3464 176.66L84.3555 176.664L84.3645 176.669L85.2529 174.877ZM91.8813 180.883L90.1592 181.9L90.1635 181.907L91.8813 180.883ZM85.2529 204.137L84.4265 202.316L84.4207 202.319L85.2529 204.137ZM74.7427 204.115H60.8633V208.115H74.7427V204.115ZM62.8633 206.115V198.827H58.8633V206.115H62.8633ZM60.8633 200.827H74.7427V196.827H60.8633V200.827ZM74.7427 200.827C77.3512 200.827 79.6575 200.409 81.5311 199.426L79.673 195.884C78.5681 196.464 76.9681 196.827 74.7427 196.827V200.827ZM81.5311 199.426C83.3527 198.471 84.7602 197.107 85.6502 195.327L82.0725 193.538C81.5953 194.493 80.8299 195.277 79.673 195.884L81.5311 199.426ZM85.6439 195.34C86.5139 193.63 86.9233 191.724 86.9233 189.672H82.9233C82.9233 191.184 82.6248 192.452 82.0788 193.526L85.6439 195.34ZM86.9233 189.672C86.9233 187.697 86.5059 185.823 85.662 184.077L82.0606 185.818C82.6328 187.002 82.9233 188.278 82.9233 189.672H86.9233ZM85.679 184.113C84.8179 182.237 83.4477 180.746 81.6393 179.649L79.5648 183.069C80.7349 183.779 81.5376 184.68 82.0437 185.782L85.679 184.113ZM81.6393 179.649C79.7387 178.496 77.3897 178.004 74.7427 178.004V182.004C76.9297 182.004 78.4869 182.415 79.5648 183.069L81.6393 179.649ZM74.7427 178.004H63.6831V182.004H74.7427V178.004ZM61.6831 180.004V226H65.6831V180.004H61.6831ZM63.6831 224H54.4912V228H63.6831V224ZM56.4912 226V172.68H52.4912V226H56.4912ZM54.4912 174.68H74.7427V170.68H54.4912V174.68ZM74.7427 174.68C78.6383 174.68 81.8132 175.372 84.3464 176.66L86.1594 173.094C82.9309 171.453 79.099 170.68 74.7427 170.68V174.68ZM84.3645 176.669C86.955 177.953 88.86 179.7 90.1592 181.9L93.6035 179.866C91.8753 176.939 89.3614 174.682 86.1413 173.085L84.3645 176.669ZM90.1635 181.907C91.4732 184.104 92.1519 186.648 92.1519 189.599H96.1519C96.1519 186.006 95.3168 182.74 93.5992 179.859L90.1635 181.907ZM92.1519 189.599C92.1519 192.742 91.4634 195.319 90.1769 197.415L93.5858 199.507C95.3267 196.671 96.1519 193.34 96.1519 189.599H92.1519ZM90.1769 197.415C88.8933 199.506 87.0072 201.145 84.4265 202.316L86.0794 205.958C89.3092 204.493 91.8421 202.348 93.5858 199.507L90.1769 197.415ZM84.4207 202.319C81.8673 203.487 78.6646 204.115 74.7427 204.115V208.115C79.0727 208.115 82.8768 207.424 86.0852 205.956L84.4207 202.319ZM137.292 218.712H139.292V216.712H137.292V218.712ZM137.292 226V228H139.292V226H137.292ZM108.983 226H106.983V228H108.983V226ZM108.983 218.712V216.712H106.983V218.712H108.983ZM111.583 172.68H113.583V170.68H111.583V172.68ZM111.583 226V228H113.583V226H111.583ZM102.392 226H100.392V228H102.392V226ZM102.392 172.68V170.68H100.392V172.68H102.392ZM133.593 194.945H135.593V192.945H133.593V194.945ZM133.593 202.123V204.123H135.593V202.123H133.593ZM108.983 202.123H106.983V204.123H108.983V202.123ZM108.983 194.945V192.945H106.983V194.945H108.983ZM137.108 172.68H139.108V170.68H137.108V172.68ZM137.108 180.004V182.004H139.108V180.004H137.108ZM108.983 180.004H106.983V182.004H108.983V180.004ZM108.983 172.68V170.68H106.983V172.68H108.983ZM135.292 218.712V226H139.292V218.712H135.292ZM137.292 224H108.983V228H137.292V224ZM110.983 226V218.712H106.983V226H110.983ZM108.983 220.712H137.292V216.712H108.983V220.712ZM109.583 172.68V226H113.583V172.68H109.583ZM111.583 224H102.392V228H111.583V224ZM104.392 226V172.68H100.392V226H104.392ZM102.392 174.68H111.583V170.68H102.392V174.68ZM131.593 194.945V202.123H135.593V194.945H131.593ZM133.593 200.123H108.983V204.123H133.593V200.123ZM110.983 202.123V194.945H106.983V202.123H110.983ZM108.983 196.945H133.593V192.945H108.983V196.945ZM135.108 172.68V180.004H139.108V172.68H135.108ZM137.108 178.004H108.983V182.004H137.108V178.004ZM110.983 180.004V172.68H106.983V180.004H110.983ZM108.983 174.68H137.108V170.68H108.983V174.68ZM144.799 172.68V170.68H142.799V172.68H144.799ZM180.578 179.931L178.887 181L178.894 181.01L178.9 181.02L180.578 179.931ZM177.282 200.878L178.499 202.465L178.506 202.46L178.513 202.454L177.282 200.878ZM170.91 204.064L170.323 202.152L170.174 202.198L170.034 202.266L170.91 204.064ZM168.126 205.419V207.419H168.587L169.002 207.217L168.126 205.419ZM151.171 205.419L149.171 205.439L149.191 207.419H151.171V205.419ZM151.098 198.131V196.131H149.077L149.098 198.151L151.098 198.131ZM172.594 193.773L170.844 192.805L170.838 192.816L172.594 193.773ZM172.631 184.325L170.848 185.232L170.858 185.251L170.868 185.27L172.631 184.325ZM169.335 181.139L168.429 182.922L168.441 182.928L168.452 182.934L169.335 181.139ZM153.991 180.004V178.004H151.991V180.004H153.991ZM153.991 226V228H155.991V226H153.991ZM144.799 226H142.799V228H144.799V226ZM175.231 226L173.459 226.927L174.02 228H175.231V226ZM162.707 202.05L162.699 200.05L159.41 200.062L160.934 202.977L162.707 202.05ZM172.338 202.013L174.097 201.062L173.528 200.009L172.33 200.013L172.338 202.013ZM185.045 225.524H187.045V225.018L186.805 224.573L185.045 225.524ZM185.045 226V228H187.045V226H185.045ZM144.799 174.68H163.659V170.68H144.799V174.68ZM163.659 174.68C167.52 174.68 170.692 175.262 173.237 176.35L174.808 172.672C171.64 171.318 167.903 170.68 163.659 170.68V174.68ZM173.237 176.35C175.758 177.428 177.611 178.983 178.887 181L182.268 178.861C180.517 176.093 177.999 174.035 174.808 172.672L173.237 176.35ZM178.9 181.02C180.183 182.995 180.885 185.524 180.885 188.72H184.885C184.885 184.933 184.049 181.603 182.255 178.841L178.9 181.02ZM180.885 188.72C180.885 191.135 180.442 193.172 179.618 194.883L183.222 196.619C184.35 194.277 184.885 191.627 184.885 188.72H180.885ZM179.618 194.883C178.776 196.631 177.592 198.098 176.051 199.302L178.513 202.454C180.536 200.875 182.111 198.924 183.222 196.619L179.618 194.883ZM176.064 199.291C174.497 200.493 172.594 201.455 170.323 202.152L171.497 205.976C174.157 205.159 176.502 203.997 178.499 202.465L176.064 199.291ZM170.034 202.266L167.251 203.621L169.002 207.217L171.785 205.862L170.034 202.266ZM168.126 203.419H151.171V207.419H168.126V203.419ZM153.171 205.399L153.098 198.111L149.098 198.151L149.171 205.439L153.171 205.399ZM151.098 200.131H163.805V196.131H151.098V200.131ZM163.805 200.131C166.228 200.131 168.407 199.702 170.24 198.724L168.357 195.195C167.26 195.78 165.776 196.131 163.805 196.131V200.131ZM170.24 198.724C172.018 197.776 173.415 196.446 174.35 194.731L170.838 192.816C170.309 193.786 169.508 194.581 168.357 195.195L170.24 198.724ZM174.344 194.742C175.28 193.051 175.729 191.175 175.729 189.159H171.729C171.729 190.562 171.422 191.761 170.844 192.805L174.344 194.742ZM175.729 189.159C175.729 187.039 175.31 185.09 174.394 183.381L170.868 185.27C171.417 186.294 171.729 187.569 171.729 189.159H175.729ZM174.413 183.418C173.497 181.616 172.069 180.255 170.218 179.344L168.452 182.934C169.58 183.488 170.349 184.251 170.848 185.232L174.413 183.418ZM170.241 179.356C168.386 178.414 166.157 178.004 163.659 178.004V182.004C165.75 182.004 167.305 182.351 168.429 182.922L170.241 179.356ZM163.659 178.004H153.991V182.004H163.659V178.004ZM151.991 180.004V226H155.991V180.004H151.991ZM153.991 224H144.799V228H153.991V224ZM146.799 226V172.68H142.799V226H146.799ZM177.003 225.073L164.479 201.123L160.934 202.977L173.459 226.927L177.003 225.073ZM162.714 204.05L172.345 204.013L172.33 200.013L162.699 200.05L162.714 204.05ZM170.578 202.964L183.286 226.475L186.805 224.573L174.097 201.062L170.578 202.964ZM183.045 225.524V226H187.045V225.524H183.045ZM185.045 224H175.231V228H185.045V224ZM201.232 172.68H203.232V170.68H201.232V172.68ZM201.232 226V228H203.232V226H201.232ZM192.04 226H190.04V228H192.04V226ZM192.04 172.68V170.68H190.04V172.68H192.04ZM222.985 196.007H224.985V194.007H222.985V196.007ZM222.985 203.295V205.295H224.985V203.295H222.985ZM198.888 203.295H196.888V205.295H198.888V203.295ZM198.888 196.007V194.007H196.888V196.007H198.888ZM226.024 172.68H228.024V170.68H226.024V172.68ZM226.024 180.004V182.004H228.024V180.004H226.024ZM198.888 180.004H196.888V182.004H198.888V180.004ZM198.888 172.68V170.68H196.888V172.68H198.888ZM199.232 172.68V226H203.232V172.68H199.232ZM201.232 224H192.04V228H201.232V224ZM194.04 226V172.68H190.04V226H194.04ZM192.04 174.68H201.232V170.68H192.04V174.68ZM220.985 196.007V203.295H224.985V196.007H220.985ZM222.985 201.295H198.888V205.295H222.985V201.295ZM200.888 203.295V196.007H196.888V203.295H200.888ZM198.888 198.007H222.985V194.007H198.888V198.007ZM224.024 172.68V180.004H228.024V172.68H224.024ZM226.024 178.004H198.888V182.004H226.024V178.004ZM200.888 180.004V172.68H196.888V180.004H200.888ZM198.888 174.68H226.024V170.68H198.888V174.68Z" fill="#F5F5F5"/>
</svg>
