<svg width="240" height="240" viewBox="0 0 240 240" fill="none" xmlns="http://www.w3.org/2000/svg">
<rect x="8" y="8" width="224" height="224" stroke="white" stroke-width="16"/>
<path d="M66.7427 195.115H52.8633V187.827H66.7427C69.1597 187.827 71.1128 187.437 72.6021 186.655C74.0913 185.874 75.1777 184.8 75.8613 183.433C76.5693 182.041 76.9233 180.454 76.9233 178.672C76.9233 176.987 76.5693 175.413 75.8613 173.948C75.1777 172.458 74.0913 171.262 72.6021 170.359C71.1128 169.456 69.1597 169.004 66.7427 169.004H55.6831V215H46.4912V161.68H66.7427C70.8687 161.68 74.3721 162.412 77.2529 163.877C80.1582 165.317 82.3677 167.319 83.8813 169.883C85.395 172.422 86.1519 175.327 86.1519 178.599C86.1519 182.041 85.395 184.995 83.8813 187.461C82.3677 189.927 80.1582 191.819 77.2529 193.137C74.3721 194.456 70.8687 195.115 66.7427 195.115ZM129.292 207.712V215H100.983V207.712H129.292ZM103.583 161.68V215H94.3916V161.68H103.583ZM125.593 183.945V191.123H100.983V183.945H125.593ZM129.108 161.68V169.004H100.983V161.68H129.108ZM136.799 161.68H155.659C159.711 161.68 163.166 162.29 166.022 163.511C168.879 164.731 171.064 166.538 172.578 168.931C174.116 171.299 174.885 174.229 174.885 177.72C174.885 180.381 174.396 182.725 173.42 184.751C172.443 186.777 171.064 188.486 169.282 189.878C167.5 191.245 165.375 192.307 162.91 193.064L160.126 194.419H143.171L143.098 187.131H155.805C158.002 187.131 159.833 186.741 161.298 185.959C162.763 185.178 163.862 184.116 164.594 182.773C165.351 181.406 165.729 179.868 165.729 178.159C165.729 176.304 165.363 174.692 164.631 173.325C163.923 171.934 162.824 170.872 161.335 170.139C159.846 169.382 157.954 169.004 155.659 169.004H145.991V215H136.799V161.68ZM167.231 215L154.707 191.05L164.338 191.013L177.045 214.524V215H167.231ZM193.232 161.68V215H184.04V161.68H193.232ZM214.985 185.007V192.295H190.888V185.007H214.985ZM218.024 161.68V169.004H190.888V161.68H218.024Z" fill="white"/>
<path d="M52.8633 195.115H50.8633V197.115H52.8633V195.115ZM52.8633 187.827V185.827H50.8633V187.827H52.8633ZM75.8613 183.433L74.0787 182.526L74.0725 182.538L75.8613 183.433ZM75.8613 173.948L74.0437 174.782L74.052 174.8L74.0606 174.818L75.8613 173.948ZM55.6831 169.004V167.004H53.6831V169.004H55.6831ZM55.6831 215V217H57.6831V215H55.6831ZM46.4912 215H44.4912V217H46.4912V215ZM46.4912 161.68V159.68H44.4912V161.68H46.4912ZM77.2529 163.877L76.3464 165.66L76.3555 165.664L76.3645 165.669L77.2529 163.877ZM83.8813 169.883L82.1592 170.9L82.1635 170.907L83.8813 169.883ZM77.2529 193.137L76.4265 191.316L76.4207 191.319L77.2529 193.137ZM66.7427 193.115H52.8633V197.115H66.7427V193.115ZM54.8633 195.115V187.827H50.8633V195.115H54.8633ZM52.8633 189.827H66.7427V185.827H52.8633V189.827ZM66.7427 189.827C69.3512 189.827 71.6575 189.409 73.5312 188.426L71.673 184.884C70.5681 185.464 68.9681 185.827 66.7427 185.827V189.827ZM73.5312 188.426C75.3527 187.471 76.7602 186.107 77.6502 184.327L74.0725 182.538C73.5953 183.493 72.8299 184.277 71.673 184.884L73.5312 188.426ZM77.6439 184.34C78.5139 182.63 78.9233 180.724 78.9233 178.672H74.9233C74.9233 180.184 74.6248 181.452 74.0788 182.526L77.6439 184.34ZM78.9233 178.672C78.9233 176.697 78.5059 174.823 77.662 173.077L74.0606 174.818C74.6328 176.002 74.9233 177.278 74.9233 178.672H78.9233ZM77.679 173.113C76.8179 171.237 75.4477 169.746 73.6393 168.649L71.5648 172.069C72.7349 172.779 73.5376 173.68 74.0437 174.782L77.679 173.113ZM73.6393 168.649C71.7387 167.496 69.3897 167.004 66.7427 167.004V171.004C68.9297 171.004 70.4869 171.415 71.5648 172.069L73.6393 168.649ZM66.7427 167.004H55.6831V171.004H66.7427V167.004ZM53.6831 169.004V215H57.6831V169.004H53.6831ZM55.6831 213H46.4912V217H55.6831V213ZM48.4912 215V161.68H44.4912V215H48.4912ZM46.4912 163.68H66.7427V159.68H46.4912V163.68ZM66.7427 163.68C70.6383 163.68 73.8132 164.372 76.3464 165.66L78.1594 162.094C74.9309 160.453 71.099 159.68 66.7427 159.68V163.68ZM76.3645 165.669C78.955 166.953 80.86 168.7 82.1592 170.9L85.6035 168.866C83.8753 165.939 81.3614 163.682 78.1413 162.085L76.3645 165.669ZM82.1635 170.907C83.4732 173.104 84.1519 175.648 84.1519 178.599H88.1519C88.1519 175.006 87.3168 171.74 85.5992 168.859L82.1635 170.907ZM84.1519 178.599C84.1519 181.742 83.4634 184.319 82.1769 186.415L85.5858 188.507C87.3267 185.671 88.1519 182.34 88.1519 178.599H84.1519ZM82.1769 186.415C80.8933 188.506 79.0072 190.145 76.4265 191.316L78.0794 194.958C81.3092 193.493 83.8421 191.348 85.5858 188.507L82.1769 186.415ZM76.4207 191.319C73.8673 192.487 70.6646 193.115 66.7427 193.115V197.115C71.0727 197.115 74.8768 196.424 78.0852 194.956L76.4207 191.319ZM129.292 207.712H131.292V205.712H129.292V207.712ZM129.292 215V217H131.292V215H129.292ZM100.983 215H98.9834V217H100.983V215ZM100.983 207.712V205.712H98.9834V207.712H100.983ZM103.583 161.68H105.583V159.68H103.583V161.68ZM103.583 215V217H105.583V215H103.583ZM94.3916 215H92.3916V217H94.3916V215ZM94.3916 161.68V159.68H92.3916V161.68H94.3916ZM125.593 183.945H127.593V181.945H125.593V183.945ZM125.593 191.123V193.123H127.593V191.123H125.593ZM100.983 191.123H98.9834V193.123H100.983V191.123ZM100.983 183.945V181.945H98.9834V183.945H100.983ZM129.108 161.68H131.108V159.68H129.108V161.68ZM129.108 169.004V171.004H131.108V169.004H129.108ZM100.983 169.004H98.9834V171.004H100.983V169.004ZM100.983 161.68V159.68H98.9834V161.68H100.983ZM127.292 207.712V215H131.292V207.712H127.292ZM129.292 213H100.983V217H129.292V213ZM102.983 215V207.712H98.9834V215H102.983ZM100.983 209.712H129.292V205.712H100.983V209.712ZM101.583 161.68V215H105.583V161.68H101.583ZM103.583 213H94.3916V217H103.583V213ZM96.3916 215V161.68H92.3916V215H96.3916ZM94.3916 163.68H103.583V159.68H94.3916V163.68ZM123.593 183.945V191.123H127.593V183.945H123.593ZM125.593 189.123H100.983V193.123H125.593V189.123ZM102.983 191.123V183.945H98.9834V191.123H102.983ZM100.983 185.945H125.593V181.945H100.983V185.945ZM127.108 161.68V169.004H131.108V161.68H127.108ZM129.108 167.004H100.983V171.004H129.108V167.004ZM102.983 169.004V161.68H98.9834V169.004H102.983ZM100.983 163.68H129.108V159.68H100.983V163.68ZM136.799 161.68V159.68H134.799V161.68H136.799ZM172.578 168.931L170.887 170L170.894 170.01L170.9 170.02L172.578 168.931ZM169.282 189.878L170.499 191.465L170.506 191.46L170.513 191.454L169.282 189.878ZM162.91 193.064L162.323 191.152L162.174 191.198L162.034 191.266L162.91 193.064ZM160.126 194.419V196.419H160.587L161.002 196.217L160.126 194.419ZM143.171 194.419L141.171 194.439L141.191 196.419H143.171V194.419ZM143.098 187.131V185.131H141.077L141.098 187.151L143.098 187.131ZM164.594 182.773L162.844 181.805L162.838 181.816L164.594 182.773ZM164.631 173.325L162.848 174.232L162.858 174.251L162.868 174.27L164.631 173.325ZM161.335 170.139L160.429 171.922L160.441 171.928L160.452 171.934L161.335 170.139ZM145.991 169.004V167.004H143.991V169.004H145.991ZM145.991 215V217H147.991V215H145.991ZM136.799 215H134.799V217H136.799V215ZM167.231 215L165.459 215.927L166.02 217H167.231V215ZM154.707 191.05L154.699 189.05L151.41 189.062L152.934 191.977L154.707 191.05ZM164.338 191.013L166.097 190.062L165.528 189.009L164.33 189.013L164.338 191.013ZM177.045 214.524H179.045V214.018L178.805 213.573L177.045 214.524ZM177.045 215V217H179.045V215H177.045ZM136.799 163.68H155.659V159.68H136.799V163.68ZM155.659 163.68C159.52 163.68 162.692 164.262 165.237 165.35L166.808 161.672C163.64 160.318 159.903 159.68 155.659 159.68V163.68ZM165.237 165.35C167.758 166.428 169.611 167.983 170.887 170L174.268 167.861C172.517 165.093 169.999 163.035 166.808 161.672L165.237 165.35ZM170.9 170.02C172.183 171.995 172.885 174.524 172.885 177.72H176.885C176.885 173.933 176.049 170.603 174.255 167.841L170.9 170.02ZM172.885 177.72C172.885 180.135 172.442 182.172 171.618 183.883L175.222 185.619C176.35 183.277 176.885 180.627 176.885 177.72H172.885ZM171.618 183.883C170.776 185.631 169.592 187.098 168.051 188.302L170.513 191.454C172.536 189.875 174.111 187.924 175.222 185.619L171.618 183.883ZM168.064 188.291C166.497 189.493 164.594 190.455 162.323 191.152L163.497 194.976C166.157 194.159 168.502 192.997 170.499 191.465L168.064 188.291ZM162.034 191.266L159.251 192.621L161.002 196.217L163.785 194.862L162.034 191.266ZM160.126 192.419H143.171V196.419H160.126V192.419ZM145.171 194.399L145.098 187.111L141.098 187.151L141.171 194.439L145.171 194.399ZM143.098 189.131H155.805V185.131H143.098V189.131ZM155.805 189.131C158.228 189.131 160.407 188.702 162.24 187.724L160.357 184.195C159.26 184.78 157.776 185.131 155.805 185.131V189.131ZM162.24 187.724C164.018 186.776 165.415 185.446 166.35 183.731L162.838 181.816C162.309 182.786 161.508 183.581 160.357 184.195L162.24 187.724ZM166.344 183.742C167.28 182.051 167.729 180.175 167.729 178.159H163.729C163.729 179.562 163.422 180.761 162.844 181.805L166.344 183.742ZM167.729 178.159C167.729 176.039 167.31 174.09 166.394 172.381L162.868 174.27C163.417 175.294 163.729 176.569 163.729 178.159H167.729ZM166.413 172.418C165.497 170.616 164.069 169.255 162.218 168.344L160.452 171.934C161.58 172.488 162.349 173.251 162.848 174.232L166.413 172.418ZM162.241 168.356C160.386 167.414 158.157 167.004 155.659 167.004V171.004C157.75 171.004 159.305 171.351 160.429 171.922L162.241 168.356ZM155.659 167.004H145.991V171.004H155.659V167.004ZM143.991 169.004V215H147.991V169.004H143.991ZM145.991 213H136.799V217H145.991V213ZM138.799 215V161.68H134.799V215H138.799ZM169.003 214.073L156.479 190.123L152.934 191.977L165.459 215.927L169.003 214.073ZM154.714 193.05L164.345 193.013L164.33 189.013L154.699 189.05L154.714 193.05ZM162.578 191.964L175.286 215.475L178.805 213.573L166.097 190.062L162.578 191.964ZM175.045 214.524V215H179.045V214.524H175.045ZM177.045 213H167.231V217H177.045V213ZM193.232 161.68H195.232V159.68H193.232V161.68ZM193.232 215V217H195.232V215H193.232ZM184.04 215H182.04V217H184.04V215ZM184.04 161.68V159.68H182.04V161.68H184.04ZM214.985 185.007H216.985V183.007H214.985V185.007ZM214.985 192.295V194.295H216.985V192.295H214.985ZM190.888 192.295H188.888V194.295H190.888V192.295ZM190.888 185.007V183.007H188.888V185.007H190.888ZM218.024 161.68H220.024V159.68H218.024V161.68ZM218.024 169.004V171.004H220.024V169.004H218.024ZM190.888 169.004H188.888V171.004H190.888V169.004ZM190.888 161.68V159.68H188.888V161.68H190.888ZM191.232 161.68V215H195.232V161.68H191.232ZM193.232 213H184.04V217H193.232V213ZM186.04 215V161.68H182.04V215H186.04ZM184.04 163.68H193.232V159.68H184.04V163.68ZM212.985 185.007V192.295H216.985V185.007H212.985ZM214.985 190.295H190.888V194.295H214.985V190.295ZM192.888 192.295V185.007H188.888V192.295H192.888ZM190.888 187.007H214.985V183.007H190.888V187.007ZM216.024 161.68V169.004H220.024V161.68H216.024ZM218.024 167.004H190.888V171.004H218.024V167.004ZM192.888 169.004V161.68H188.888V169.004H192.888ZM190.888 163.68H218.024V159.68H190.888V163.68Z" fill="white"/>
</svg>
